PathFileType	4	(X/Y/Z)	/Users/itak/Documents/Research/Walk-IL/dataset/trc/00577_00009.trc
DataRate	CameraRate	NumFrames	NumMarkers	Units	OrigDataRate	OrigDataStartFrame	OrigNumFrames
100.000000	100.000000	4	53	mm	100.000000	419	559
Frame#	Time	RPSI			LPSI			L3			STRN			T10			C7			CLAV			RBAK			LBAK			LSHO			LUPA			LAEL			LAOL			LWTS			LWPS			LFRA			LIFD			LHPS			LHTS			RSHO			RUPA			RAEL			RAOL			RWTS			RWPS			RFRA			RIFD			RHTS			RHPS			RBHD			LFHD			RFHD			LBHD			LHIP			RHIP			RASI			LASI			LKNE			LTHI			LANK			LTIP			LTOE			LMT1			LMT5			LHEE			RKNE			RTHI			RANK			RTIP			RTOE			RMT1			RMT5			RHEE			
		X1	Y1	Z1	X2	Y2	Z2	X3	Y3	Z3	X4	Y4	Z4	X5	Y5	Z5	X6	Y6	Z6	X7	Y7	Z7	X8	Y8	Z8	X9	Y9	Z9	X10	Y10	Z10	X11	Y11	Z11	X12	Y12	Z12	X13	Y13	Z13	X14	Y14	Z14	X15	Y15	Z15	X16	Y16	Z16	X17	Y17	Z17	X18	Y18	Z18	X19	Y19	Z19	X20	Y20	Z20	X21	Y21	Z21	X22	Y22	Z22	X23	Y23	Z23	X24	Y24	Z24	X25	Y25	Z25	X26	Y26	Z26	X27	Y27	Z27	X28	Y28	Z28	X29	Y29	Z29	X30	Y30	Z30	X31	Y31	Z31	X32	Y32	Z32	X33	Y33	Z33	X34	Y34	Z34	X35	Y35	Z35	X36	Y36	Z36	X37	Y37	Z37	X38	Y38	Z38	X39	Y39	Z39	X40	Y40	Z40	X41	Y41	Z41	X42	Y42	Z42	X43	Y43	Z43	X44	Y44	Z44	X45	Y45	Z45	X46	Y46	Z46	X47	Y47	Z47	X48	Y48	Z48	X49	Y49	Z49	X50	Y50	Z50	X51	Y51	Z51	X52	Y52	Z52	X53	Y53	Z53	

420	4.19	672.0988159179688	986.6892700195312	193.5859069824219	555.11865234375	992.1959838867188	129.2790222167969	608.248779296875	1083.089721679688	157.2765197753906	716.5910034179688	1274.782958984375	-47.52536773681641	603.2328491210938	1208.466430664062	165.5293273925781	642.2157592773438	1482.723266601562	137.4036712646484	711.0728759765625	1385.940307617188	-25.83584976196289	681.43798828125	1352.316284179688	234.2812957763672	544.5467529296875	1433.099853515625	123.3679885864258	514.0897827148438	1461.449829101562	-0.3013396263122559	435.3628540039062	1335.323608398438	-24.14221954345703	417.5361633300781	1117.352661132812	-48.66831207275391	436.3065490722656	1103.896606445312	50.64935684204102	511.5354614257812	891.923583984375	-144.7996368408203	429.1896667480469	864.22216796875	-135.1287078857422	424.10498046875	1035.51708984375	-81.12223815917969	515.2562866210938	721.8177490234375	-152.37451171875	441.8552856445312	805.3464965820312	-144.6800689697266	503.1177368164062	815.012451171875	-173.2229766845703	805.2076416015625	1440.052734375	157.5133209228516	854.7220458984375	1373.774780273438	204.6850738525391	887.603271484375	1085.110229492188	232.1142883300781	835.5115966796875	1070.934936523438	266.1619873046875	927.478271484375	857.6183471679688	108.9935073852539	956.725830078125	841.8887329101562	184.3778533935547	899.011474609375	1030.19580078125	229.8373870849609	928.5368041992188	684.912109375	116.2694473266602	953.2664794921875	764.5137329101562	100.7373123168945	963.2735595703125	766.8167114257812	174.1340179443359	747.5907592773438	1665.81298828125	93.9659423828125	683.7188720703125	1684.6640625	-102.5285491943359	808.9852905273438	1681.05517578125	-31.23225975036621	606.2261352539062	1668.086669921875	5.920461177825928	494.6921691894531	910.589111328125	-38.82768249511719	838.1011352539062	923.2750854492188	131.2684783935547	822.1553955078125	958.8220825195312	29.98054695129395	574.6537475585938	935.1567993164062	-88.72044372558594	531.4727172851562	464.5149230957031	22.66866683959961	515.8457641601562	631.7667236328125	-17.53081130981445	385.4317016601562	113.7601013183594	339.8815307617188	441.5115966796875	291.4690246582031	195.6522674560547	571.0128173828125	36.96723937988281	291.4168701171875	541.535888671875	72.454833984375	341.7681274414062	461.3589782714844	40.94303894042969	282.2551574707031	383.1400756835938	177.6314697265625	400.3244934082031	870.9217529296875	512.6409301757812	-41.7966194152832	874.0509643554688	783.9020385742188	60.19019317626953	851.2380981445312	41.10955047607422	-20.74495124816895	872.8883666992188	367.9038696289062	-72.26631927490234	897.2159423828125	41.05370712280273	-242.6052703857422	835.48974609375	44.19277572631836	-197.8207550048828	919.5809936523438	42.96053695678711	-135.7897033691406	779.8203735351562	33.83509063720703	6.824073791503906	
421	4.2	677.73388671875	988.5166625976562	187.3154907226562	560.3906860351562	993.8081665039062	123.5325164794922	614.2921142578125	1084.268310546875	150.5243682861328	721.8980102539062	1276.22216796875	-53.77497100830078	609.0734252929688	1209.677001953125	159.3978881835938	647.9768676757812	1483.95654296875	131.7793273925781	716.3795166015625	1387.371337890625	-31.79475402832031	687.3524780273438	1353.3740234375	228.3538360595703	550.26318359375	1434.378173828125	117.9207077026367	519.4956665039062	1462.945190429688	-5.585280895233154	440.5893249511719	1336.879150390625	-29.22889709472656	422.3097229003906	1118.929321289062	-53.61625289916992	441.4139404296875	1105.671630859375	45.67001724243164	514.4345703125	892.2230224609375	-148.8413238525391	432.0312805175781	864.9566650390625	-138.4815826416016	428.2203674316406	1036.807495117188	-85.64016723632812	517.5242919921875	722.0314331054688	-154.7066345214844	444.3926391601562	805.9310302734375	-147.5095977783203	505.5553894042969	815.0547485351562	-176.4381561279297	810.8931274414062	1441.261108398438	151.5014038085938	860.5643920898438	1374.99169921875	198.5044250488281	893.7086181640625	1086.297485351562	225.3116760253906	841.7847290039062	1071.670166015625	259.5039672851562	933.7437133789062	859.949462890625	100.383659362793	963.0345458984375	843.5249633789062	175.6092224121094	905.2113037109375	1031.359130859375	222.6904296875	935.6642456054688	687.2786865234375	105.6897964477539	960.0413818359375	767.1588745117188	91.10240173339844	969.9498291015625	768.6236572265625	164.5530242919922	753.2108154296875	1667.043579101562	88.37413787841797	688.606689453125	1686.295776367188	-107.8515014648438	814.15673828125	1682.459716796875	-37.06569671630859	611.4883422851562	1669.607177734375	0.8523097634315491	499.6507263183594	911.8619384765625	-44.39188766479492	843.3699951171875	924.3622436523438	124.677619934082	827.261474609375	959.686279296875	23.36979866027832	579.4183349609375	936.4480590820312	-94.41605377197266	535.6224365234375	464.6676330566406	11.9946403503418	520.2415161132812	632.6215209960938	-25.9798412322998	387.2005004882812	119.2024459838867	334.1598205566406	445.1992797851562	294.1371459960938	186.7086486816406	571.6581420898438	36.52270126342773	289.5712280273438	542.5033569335938	75.36991882324219	338.0237121582031	462.2437744140625	42.03271484375	279.6875	385.8089599609375	184.8847198486328	392.4759216308594	873.1347045898438	512.348876953125	-45.8880729675293	878.2685546875	784.290283203125	54.37780380249023	850.94189453125	41.52581405639648	-21.07654571533203	874.194580078125	367.3714599609375	-75.35069274902344	897.25	40.82693862915039	-242.9716949462891	835.2534790039062	43.89786529541016	-198.1771850585938	919.23779296875	43.34496688842773	-136.1393280029297	779.6742553710938	33.99562072753906	6.571811199188232	
422	4.21	683.1417846679688	990.3330688476562	181.2432403564453	565.4465942382812	995.4072875976562	117.9941024780273	620.1044311523438	1085.473876953125	143.9779357910156	727.0654907226562	1277.60009765625	-59.87789154052734	614.7711181640625	1210.917236328125	153.4573211669922	653.6600341796875	1485.212646484375	126.2227935791016	721.565185546875	1388.749633789062	-37.67439651489258	693.1864624023438	1354.497314453125	222.5413208007812	555.8717651367188	1435.672241210938	112.5649871826172	524.7803955078125	1464.38720703125	-10.79937553405762	445.69287109375	1338.379638671875	-34.22175598144531	426.9928894042969	1120.465942382812	-58.5592041015625	446.39208984375	1107.35986328125	40.70405960083008	517.3526000976562	892.6087036132812	-152.9808044433594	434.8799438476562	865.7681884765625	-141.9975280761719	432.2835083007812	1038.100463867188	-90.19968414306641	519.8232421875	722.3438110351562	-157.2619934082031	446.9497985839844	806.5987548828125	-150.5427551269531	508.0393676757812	815.2153930664062	-179.8115386962891	816.485107421875	1442.50732421875	145.5176086425781	866.322998046875	1376.264892578125	192.3632507324219	899.7203369140625	1087.544555664062	218.6266021728516	847.9864501953125	1072.438354492188	252.9653167724609	939.925537109375	862.464599609375	91.73648834228516	969.2568969726562	845.2734375	166.7888336181641	911.3325805664062	1032.584838867188	215.6272430419922	942.7825317382812	689.856689453125	94.8829345703125	966.7821044921875	770.0333251953125	81.33346557617188	976.5745849609375	770.5756225585938	154.8262329101562	758.6329345703125	1668.26025390625	82.80504608154297	693.3187255859375	1687.889526367188	-113.1555252075195	819.150146484375	1683.888549804688	-42.87274932861328	616.5812377929688	1671.052612304688	-4.21634578704834	504.4313354492188	913.111572265625	-49.7713508605957	848.4266357421875	925.424560546875	118.2922515869141	832.15576171875	960.5200805664062	16.97892761230469	583.9832153320312	937.77197265625	-99.92687225341797	540.023193359375	464.7839965820312	1.102413654327393	524.7395629882812	633.443359375	-34.49252700805664	389.2195129394531	124.9459533691406	328.1211853027344	449.1445617675781	296.7712097167969	177.4531402587891	572.2300415039062	36.00079727172852	286.6037902832031	543.6995239257812	78.66169738769531	333.3805541992188	463.1473083496094	43.55986022949219	276.6963195800781	388.8226928710938	192.2328491210938	384.5205688476562	875.2099609375	512.0634765625	-49.78354263305664	882.1915893554688	784.6817626953125	48.77356719970703	850.6441040039062	41.91037750244141	-21.3835506439209	875.366455078125	366.8781433105469	-78.25941467285156	897.2645263671875	40.6673583984375	-243.2701568603516	835.0136108398438	43.63281631469727	-198.4864044189453	918.9185791015625	43.67837524414062	-136.4233703613281	779.5545043945312	34.146728515625	6.370084762573242	
423	4.22	688.3300170898438	992.1259155273438	175.3746795654297	570.2886962890625	996.9833984375	112.6726303100586	625.64892578125	1086.723022460938	137.7092742919922	732.0733032226562	1278.91259765625	-65.822265625	620.3097534179688	1212.186401367188	147.7042388916016	659.2652587890625	1486.487426757812	120.7507476806641	726.620849609375	1390.070068359375	-43.46814727783203	698.9425048828125	1355.680908203125	216.8478546142578	561.3677368164062	1436.983032226562	107.3148574829102	529.9398803710938	1465.779174804688	-15.93124008178711	450.67626953125	1339.828735351562	-39.1151008605957	431.576171875	1121.960327148438	-63.45890045166016	451.2576599121094	1108.960083007812	35.78429412841797	520.263916015625	893.08349609375	-157.2128295898438	437.7203979492188	866.6615600585938	-145.6568756103516	436.2869873046875	1039.392456054688	-94.7713623046875	522.119140625	722.7549438476562	-160.0906982421875	449.5008850097656	807.353515625	-153.7865600585938	510.5374450683594	815.5075073242188	-183.3636169433594	821.984130859375	1443.78759765625	139.5585021972656	872.0040893554688	1377.58837890625	186.2521362304688	905.6456909179688	1088.844482421875	212.0479431152344	854.1181640625	1073.266479492188	246.5250549316406	946.0068359375	865.1400146484375	83.05895233154297	975.3953247070312	847.12939453125	157.9164581298828	917.3809814453125	1033.86767578125	208.6376037597656	949.8468017578125	692.6278076171875	83.90876770019531	973.4534301757812	773.105224609375	71.45566558837891	983.1339721679688	772.6666259765625	144.9779357910156	763.8668212890625	1669.4609375	77.25621795654297	697.8587036132812	1689.432739257812	-118.447868347168	823.9691772460938	1685.326782226562	-48.65664291381836	621.50634765625	1672.417724609375	-9.286257743835449	509.01708984375	914.3323364257812	-54.95944976806641	853.271728515625	926.4606323242188	112.1107940673828	836.8202514648438	961.3187866210938	10.80574131011963	588.3286743164062	939.1220703125	-105.2483291625977	544.7070922851562	464.8836669921875	-9.972846031188965	529.3576049804688	634.2353515625	-43.05239105224609	391.5363464355469	130.9287109375	321.8290100097656	453.3526916503906	299.3993530273438	167.9610137939453	572.6173706054688	35.46032333374023	282.1722412109375	545.1788330078125	82.20985412597656	327.5999145507812	464.0123291015625	45.60038375854492	273.1253662109375	392.3110656738281	199.5910949707031	376.5575866699219	877.15966796875	511.7771911621094	-53.47210311889648	885.8590087890625	785.0743408203125	43.38086700439453	850.3521728515625	42.27342987060547	-21.67367362976074	876.4254150390625	366.4173889160156	-80.97957611083984	897.2595825195312	40.55160522460938	-243.5131683349609	834.7716064453125	43.39416885375977	-198.7531585693359	918.6200561523438	43.96945190429688	-136.657958984375	779.4594116210938	34.29039764404297	6.210872173309326	
